<svg data-v-423bf9ae="" xmlns="http://www.w3.org/2000/svg" viewBox="0 0 105.9535838715675 60" class="font"><!----><!----><defs data-v-423bf9ae=""><linearGradient data-v-423bf9ae="" gradientTransform="rotate(25)" id="319bc45a-d2d0-45cd-9ae0-d93b951fefc3" x1="0%" y1="0%" x2="100%" y2="0%"><stop data-v-423bf9ae="" offset="0%" style="stop-color: rgb(101, 102, 206); stop-opacity: 1;"></stop><stop data-v-423bf9ae="" offset="100%" style="stop-color: rgb(219, 193, 208); stop-opacity: 1;"></stop></linearGradient></defs><g data-v-423bf9ae="" id="6ed45f28-7856-48e5-905d-03adb1456923" fill="url(#319bc45a-d2d0-45cd-9ae0-d93b951fefc3)" transform="matrix(6.054490506946714,0,0,6.054490506946714,-1.5136231806844904,-2.5428861735674815)"><path d="M8.55 2.12L3.83 2.12L3.25 5.10L7.81 5.10L7.51 6.66L2.95 6.66L2.26 10.19L0.25 10.19L2.11 0.56L8.85 0.56L8.55 2.12ZM12.65 10.33L12.65 10.33L12.65 10.33Q11.73 10.33 11.03 10.17L11.03 10.17L11.03 10.17Q10.34 10.00 9.85 9.67L9.85 9.67L9.85 9.67Q9.37 9.34 9.10 8.85L9.10 8.85L9.10 8.85Q8.82 8.35 8.72 7.70L8.72 7.70L10.70 7.36L10.70 7.36Q10.77 7.73 10.92 8.00L10.92 8.00L10.92 8.00Q11.07 8.28 11.32 8.46L11.32 8.46L11.32 8.46Q11.57 8.64 11.94 8.73L11.94 8.73L11.94 8.73Q12.30 8.82 12.79 8.82L12.79 8.82L12.79 8.82Q13.31 8.82 13.74 8.75L13.74 8.75L13.74 8.75Q14.18 8.68 14.49 8.52L14.49 8.52L14.49 8.52Q14.80 8.36 14.97 8.10L14.97 8.10L14.97 8.10Q15.15 7.84 15.15 7.46L15.15 7.46L15.15 7.46Q15.15 7.14 15.02 6.91L15.02 6.91L15.02 6.91Q14.89 6.69 14.63 6.52L14.63 6.52L14.63 6.52Q14.38 6.36 14.00 6.23L14.00 6.23L14.00 6.23Q13.62 6.10 13.11 5.97L13.11 5.97L13.11 5.97Q12.47 5.80 11.90 5.58L11.90 5.58L11.90 5.58Q11.34 5.37 10.92 5.05L10.92 5.05L10.92 5.05Q10.50 4.72 10.25 4.26L10.25 4.26L10.25 4.26Q10.01 3.79 10.01 3.10L10.01 3.10L10.01 3.10Q10.01 2.45 10.32 1.95L10.32 1.95L10.32 1.95Q10.62 1.45 11.15 1.11L11.15 1.11L11.15 1.11Q11.68 0.77 12.40 0.59L12.40 0.59L12.40 0.59Q13.11 0.42 13.92 0.42L13.92 0.42L13.92 0.42Q14.81 0.42 15.47 0.58L15.47 0.58L15.47 0.58Q16.14 0.75 16.61 1.06L16.61 1.06L16.61 1.06Q17.08 1.36 17.36 1.79L17.36 1.79L17.36 1.79Q17.64 2.21 17.75 2.73L17.75 2.73L15.78 3.19L15.78 3.19Q15.63 2.58 15.12 2.21L15.12 2.21L15.12 2.21Q14.62 1.85 13.82 1.85L13.82 1.85L13.82 1.85Q13.36 1.85 13.03 1.93L13.03 1.93L13.03 1.93Q12.69 2.02 12.46 2.18L12.46 2.18L12.46 2.18Q12.23 2.34 12.11 2.56L12.11 2.56L12.11 2.56Q12.00 2.78 12.00 3.04L12.00 3.04L12.00 3.04Q12.00 3.34 12.15 3.55L12.15 3.55L12.15 3.55Q12.30 3.76 12.57 3.91L12.57 3.91L12.57 3.91Q12.84 4.06 13.22 4.18L13.22 4.18L13.22 4.18Q13.60 4.29 14.05 4.42L14.05 4.42L14.05 4.42Q14.40 4.51 14.76 4.62L14.76 4.62L14.76 4.62Q15.13 4.74 15.47 4.89L15.47 4.89L15.47 4.89Q15.81 5.04 16.11 5.25L16.11 5.25L16.11 5.25Q16.41 5.46 16.64 5.75L16.64 5.75L16.64 5.75Q16.86 6.04 16.99 6.42L16.99 6.42L16.99 6.42Q17.12 6.80 17.12 7.30L17.12 7.30L17.12 7.30Q17.12 8.02 16.85 8.58L16.85 8.58L16.85 8.58Q16.58 9.14 16.02 9.53L16.02 9.53L16.02 9.53Q15.47 9.92 14.63 10.12L14.63 10.12L14.63 10.12Q13.79 10.33 12.65 10.33Z"></path></g><!----><!----></svg>