<svg data-v-423bf9ae="" xmlns="http://www.w3.org/2000/svg" viewBox="0 0 285.18237064886085 60" class="font">
	<!--  -->
	<!--  -->
	<defs data-v-423bf9ae="">
		<linearGradient data-v-423bf9ae="" gradientTransform="rotate(25)" id="50a2061f-878a-4cef-8174-92aa918e4044" x1="0%" y1="0%" x2="100%" y2="0%">
			<stop data-v-423bf9ae="" offset="0%" style="stop-color: rgb(140, 72, 210); stop-opacity: 1;">
			</stop>
			<stop data-v-423bf9ae="" offset="100%" style="stop-color: rgb(207, 112, 90); stop-opacity: 1;">
			</stop>
		</linearGradient>
	</defs>
	<g data-v-423bf9ae="" id="a4816f1f-7f01-481e-9f26-e641a8b2f4d8" fill="url(#50a2061f-878a-4cef-8174-92aa918e4044)" transform="matrix(4.559270569581267,0,0,4.559270569581267,-6.884501370695887,-12.765956662168847)">
		<path d="M7.98 4.83L2.63 4.83L2.63 7.81L6.80 7.81L6.80 8.86L2.63 8.86L2.63 13.02L1.51 13.02L1.51 3.78L7.98 3.78L7.98 4.83ZM14.87 12.21L14.87 12.21Q15.15 12.21 15.43 12.14L15.43 12.14L15.36 13.02L15.36 13.02Q14.97 13.16 14.52 13.16L14.52 13.16L14.52 13.16Q13.97 13.16 13.66 12.92L13.66 12.92L13.66 12.92Q13.34 12.68 13.26 12.12L13.26 12.12L13.26 12.12Q12.94 12.61 12.31 12.89L12.31 12.89L12.31 12.89Q11.69 13.16 11.00 13.16L11.00 13.16L11.00 13.16Q9.97 13.16 9.30 12.68L9.30 12.68L9.30 12.68Q8.62 12.19 8.62 11.28L8.62 11.28L8.62 11.28Q8.62 10.49 9.32 9.90L9.32 9.90L9.32 9.90Q10.02 9.32 11.35 9.10L11.35 9.10L13.22 8.79L13.22 8.40L13.22 8.40Q13.22 7.70 12.78 7.28L12.78 7.28L12.78 7.28Q12.35 6.86 11.58 6.86L11.58 6.86L11.58 6.86Q10.88 6.86 10.37 7.20L10.37 7.20L10.37 7.20Q9.86 7.53 9.58 8.19L9.58 8.19L8.75 7.59L8.75 7.59Q9.03 6.80 9.79 6.34L9.79 6.34L9.79 6.34Q10.56 5.88 11.58 5.88L11.58 5.88L11.58 5.88Q12.82 5.88 13.58 6.48L13.58 6.48L13.58 6.48Q14.34 7.08 14.34 8.26L14.34 8.26L14.34 11.70L14.34 11.70Q14.34 11.96 14.46 12.08L14.46 12.08L14.46 12.08Q14.59 12.21 14.87 12.21L14.87 12.21ZM11.06 12.18L11.06 12.18Q11.94 12.18 12.58 11.76L12.58 11.76L12.58 11.76Q13.22 11.34 13.22 10.67L13.22 10.67L13.22 9.70L11.65 10.00L11.65 10.00Q10.71 10.16 10.25 10.48L10.25 10.48L10.25 10.48Q9.79 10.79 9.79 11.28L9.79 11.28L9.79 11.28Q9.79 11.72 10.12 11.95L10.12 11.95L10.12 11.95Q10.46 12.18 11.06 12.18L11.06 12.18ZM22.01 13.02L19.66 9.56L18.17 11.05L18.17 13.02L17.05 13.02L17.05 2.80L18.17 2.80L18.17 9.65L21.80 6.02L23.20 6.02L20.47 8.75L23.37 13.02L22.01 13.02ZM30.74 9.16L30.74 9.16Q30.74 9.55 30.69 9.94L30.69 9.94L25.41 9.94L25.41 9.94Q25.51 11.00 26.12 11.59L26.12 11.59L26.12 11.59Q26.73 12.18 27.69 12.18L27.69 12.18L27.69 12.18Q28.46 12.18 28.97 11.91L28.97 11.91L28.97 11.91Q29.48 11.65 29.67 11.14L29.67 11.14L30.60 11.63L30.60 11.63Q30.18 12.38 29.48 12.77L29.48 12.77L29.48 12.77Q28.78 13.16 27.69 13.16L27.69 13.16L27.69 13.16Q26.11 13.16 25.21 12.19L25.21 12.19L25.21 12.19Q24.30 11.23 24.30 9.52L24.30 9.52L24.30 9.52Q24.30 7.81 25.16 6.85L25.16 6.85L25.16 6.85Q26.03 5.88 27.61 5.88L27.61 5.88L27.61 5.88Q28.59 5.88 29.30 6.31L29.30 6.31L29.30 6.31Q30.02 6.75 30.38 7.49L30.38 7.49L30.38 7.49Q30.74 8.23 30.74 9.16L30.74 9.16ZM27.61 6.86L27.61 6.86Q26.68 6.86 26.12 7.41L26.12 7.41L26.12 7.41Q25.55 7.95 25.42 8.95L25.42 8.95L29.67 8.95L29.67 8.95Q29.55 7.97 29.02 7.41L29.02 7.41L29.02 7.41Q28.49 6.86 27.61 6.86L27.61 6.86ZM35.25 13.16L35.25 13.16Q34.24 13.16 33.43 12.76L33.43 12.76L33.43 12.76Q32.62 12.36 32.24 11.58L32.24 11.58L33.15 10.95L33.15 10.95Q33.39 11.56 33.98 11.87L33.98 11.87L33.98 11.87Q34.57 12.18 35.36 12.18L35.36 12.18L35.36 12.18Q36.19 12.18 36.62 11.89L36.62 11.89L36.62 11.89Q37.06 11.59 37.06 11.14L37.06 11.14L37.06 11.14Q37.06 10.74 36.65 10.49L36.65 10.49L36.65 10.49Q36.25 10.25 35.22 10.07L35.22 10.07L35.22 10.07Q34.22 9.88 33.63 9.63L33.63 9.63L33.63 9.63Q33.04 9.37 32.77 8.97L32.77 8.97L32.77 8.97Q32.51 8.57 32.51 7.98L32.51 7.98L32.51 7.98Q32.51 7.41 32.84 6.93L32.84 6.93L32.84 6.93Q33.18 6.45 33.81 6.17L33.81 6.17L33.81 6.17Q34.44 5.88 35.27 5.88L35.27 5.88L35.27 5.88Q36.39 5.88 37.06 6.29L37.06 6.29L37.06 6.29Q37.74 6.71 38.04 7.56L38.04 7.56L37.09 8.12L37.09 8.12Q36.86 7.45 36.41 7.15L36.41 7.15L36.41 7.15Q35.95 6.86 35.27 6.86L35.27 6.86L35.27 6.86Q34.58 6.86 34.10 7.17L34.10 7.17L34.10 7.17Q33.63 7.48 33.63 7.88L33.63 7.88L33.63 7.88Q33.63 8.34 34.04 8.60L34.04 8.60L34.04 8.60Q34.45 8.85 35.52 9.03L35.52 9.03L35.52 9.03Q36.97 9.27 37.58 9.74L37.58 9.74L37.58 9.74Q38.18 10.22 38.18 11.09L38.18 11.09L38.18 11.09Q38.18 11.69 37.82 12.16L37.82 12.16L37.82 12.16Q37.46 12.63 36.80 12.89L36.80 12.89L36.80 12.89Q36.13 13.16 35.25 13.16L35.25 13.16ZM43.65 5.88L43.65 5.88Q44.84 5.88 45.61 6.57L45.61 6.57L45.61 6.57Q46.38 7.25 46.38 8.54L46.38 8.54L46.38 13.02L45.26 13.02L45.26 8.93L45.26 8.93Q45.26 7.84 44.79 7.35L44.79 7.35L44.79 7.35Q44.32 6.86 43.54 6.86L43.54 6.86L43.54 6.86Q42.99 6.86 42.50 7.11L42.50 7.11L42.50 7.11Q42 7.36 41.69 7.92L41.69 7.92L41.69 7.92Q41.37 8.47 41.37 9.31L41.37 9.31L41.37 13.02L40.25 13.02L40.25 2.80L41.37 2.80L41.37 7.07L41.37 7.07Q41.72 6.47 42.31 6.17L42.31 6.17L42.31 6.17Q42.91 5.88 43.65 5.88L43.65 5.88ZM51.87 5.88L51.87 5.88Q53.45 5.88 54.36 6.85L54.36 6.85L54.36 6.85Q55.26 7.81 55.26 9.52L55.26 9.52L55.26 9.52Q55.26 11.23 54.36 12.19L54.36 12.19L54.36 12.19Q53.45 13.16 51.87 13.16L51.87 13.16L51.87 13.16Q50.29 13.16 49.39 12.19L49.39 12.19L49.39 12.19Q48.48 11.23 48.48 9.52L48.48 9.52L48.48 9.52Q48.48 7.81 49.39 6.85L49.39 6.85L49.39 6.85Q50.29 5.88 51.87 5.88L51.87 5.88ZM51.87 6.85L51.87 6.85Q50.81 6.85 50.20 7.56L50.20 7.56L50.20 7.56Q49.60 8.27 49.60 9.52L49.60 9.52L49.60 9.52Q49.60 10.77 50.20 11.48L50.20 11.48L50.20 11.48Q50.81 12.19 51.87 12.19L51.87 12.19L51.87 12.19Q52.93 12.19 53.54 11.48L53.54 11.48L53.54 11.48Q54.14 10.77 54.14 9.52L54.14 9.52L54.14 9.52Q54.14 8.27 53.54 7.56L53.54 7.56L53.54 7.56Q52.93 6.85 51.87 6.85L51.87 6.85ZM60.87 5.88L60.87 5.88Q62.34 5.88 63.20 6.85L63.20 6.85L63.20 6.85Q64.06 7.83 64.06 9.52L64.06 9.52L64.06 9.52Q64.06 11.21 63.20 12.19L63.20 12.19L63.20 12.19Q62.34 13.16 60.87 13.16L60.87 13.16L60.87 13.16Q60.10 13.16 59.49 12.82L59.49 12.82L59.49 12.82Q58.88 12.49 58.55 11.93L58.55 11.93L58.55 15.96L57.43 15.96L57.43 6.02L58.41 6.02L58.48 7.24L58.48 7.24Q58.79 6.62 59.42 6.25L59.42 6.25L59.42 6.25Q60.06 5.88 60.87 5.88L60.87 5.88ZM60.75 12.18L60.75 12.18Q61.77 12.18 62.36 11.46L62.36 11.46L62.36 11.46Q62.94 10.74 62.94 9.52L62.94 9.52L62.94 9.52Q62.94 8.30 62.36 7.58L62.36 7.58L62.36 7.58Q61.77 6.86 60.75 6.86L60.75 6.86L60.75 6.86Q59.74 6.86 59.14 7.56L59.14 7.56L59.14 7.56Q58.55 8.26 58.55 9.44L58.55 9.44L58.55 9.60L58.55 9.60Q58.55 10.78 59.14 11.48L59.14 11.48L59.14 11.48Q59.74 12.18 60.75 12.18L60.75 12.18Z">
		</path>
	</g>
	<!--  -->
	<!--  -->
</svg>
