<svg data-v-423bf9ae="" xmlns="http://www.w3.org/2000/svg" viewBox="0 0 80.3333346048991 60" class="font"><!----><defs data-v-423bf9ae=""><linearGradient data-v-423bf9ae="" gradientTransform="rotate(25)" id="d0365d0f-b9e9-4d28-8ed1-916586ceb6cb" x1="0%" y1="0%" x2="100%" y2="0%"><stop data-v-423bf9ae="" offset="0%" style="stop-color: rgb(142, 66, 211); stop-opacity: 1;"></stop><stop data-v-423bf9ae="" offset="100%" style="stop-color: rgb(212, 105, 117); stop-opacity: 1;"></stop></linearGradient></defs><!----><g data-v-423bf9ae="" id="b0ea790d-4f27-4074-b079-ad9e9f1bc169" fill="#ffffff" transform="matrix(6.666666666666667,0,0,6.666666666666667,-7.400001486142479,-26.800000349680587)"><path d="M1.93 13.02L1.93 13.02L1.30 13.02L1.30 13.02Q1.11 13.02 1.11 12.82L1.11 12.82L1.11 4.21L1.11 4.21Q1.11 4.02 1.30 4.02L1.30 4.02L5.66 4.02L5.66 4.02Q5.85 4.02 5.85 4.21L5.85 4.21L5.85 4.72L5.85 4.72Q5.85 4.91 5.66 4.91L5.66 4.91L2.27 4.91L2.27 4.91Q2.13 4.91 2.13 5.04L2.13 5.04L2.13 8.09L2.13 8.09Q2.13 8.22 2.27 8.22L2.27 8.22L5.26 8.22L5.26 8.22Q5.46 8.22 5.46 8.41L5.46 8.41L5.46 8.92L5.46 8.92Q5.46 9.11 5.26 9.11L5.26 9.11L2.27 9.11L2.27 9.11Q2.13 9.11 2.13 9.25L2.13 9.25L2.13 12.82L2.13 12.82Q2.13 13.02 1.93 13.02ZM7.41 10.95L7.41 10.95L7.41 10.50L7.41 10.50Q7.41 10.30 7.60 10.30L7.60 10.30L8.23 10.30L8.23 10.30Q8.43 10.30 8.43 10.50L8.43 10.50L8.43 10.86L8.43 10.86Q8.43 12.12 9.67 12.12L9.67 12.12L10.91 12.12L10.91 12.12Q12.15 12.12 12.15 10.84L12.15 10.84L12.15 10.36L12.15 10.36Q12.15 9.35 10.49 9.04L10.49 9.04L10.49 9.04Q9.79 8.92 9.09 8.75L9.09 8.75L9.09 8.75Q8.39 8.58 7.90 8.10L7.90 8.10L7.90 8.10Q7.41 7.62 7.41 6.78L7.41 6.78L7.41 6.09L7.41 6.09Q7.41 5.12 7.96 4.57L7.96 4.57L7.96 4.57Q8.51 4.02 9.48 4.02L9.48 4.02L11.03 4.02L11.03 4.02Q11.98 4.02 12.54 4.57L12.54 4.57L12.54 4.57Q13.10 5.12 13.10 6.09L13.10 6.09L13.10 6.44L13.10 6.44Q13.10 6.65 12.92 6.65L12.92 6.65L12.28 6.65L12.28 6.65Q12.10 6.65 12.10 6.44L12.10 6.44L12.10 6.19L12.10 6.19Q12.10 4.91 10.85 4.91L10.85 4.91L9.66 4.91L9.66 4.91Q8.41 4.91 8.41 6.24L8.41 6.24L8.41 6.80L8.41 6.80Q8.41 7.52 9.35 7.78L9.35 7.78L9.35 7.78Q9.77 7.90 10.28 7.99L10.28 7.99L10.28 7.99Q10.78 8.08 11.29 8.22L11.29 8.22L11.29 8.22Q11.80 8.37 12.22 8.59L12.22 8.59L12.22 8.59Q12.64 8.81 12.90 9.25L12.90 9.25L12.90 9.25Q13.16 9.69 13.16 10.32L13.16 10.32L13.16 10.95L13.16 10.95Q13.16 11.91 12.60 12.47L12.60 12.47L12.60 12.47Q12.04 13.02 11.09 13.02L11.09 13.02L9.48 13.02L9.48 13.02Q8.53 13.02 7.97 12.47L7.97 12.47L7.97 12.47Q7.41 11.91 7.41 10.95Z"></path></g><!----><!----></svg>