<svg data-v-423bf9ae="" xmlns="http://www.w3.org/2000/svg" viewBox="0 0 92.99175564718274 60" class="font"><!----><!----><defs data-v-423bf9ae=""><linearGradient data-v-423bf9ae="" gradientTransform="rotate(25)" id="a6620a55-88a5-4b38-8101-e4e48a3abb57" x1="0%" y1="0%" x2="100%" y2="0%"><stop data-v-423bf9ae="" offset="0%" style="stop-color: rgb(206, 175, 235); stop-opacity: 1;"></stop><stop data-v-423bf9ae="" offset="100%" style="stop-color: rgb(239, 223, 180); stop-opacity: 1;"></stop></linearGradient></defs><g data-v-423bf9ae="" id="b7606e80-73e9-44fe-9bde-57737b4b4032" fill="url(#a6620a55-88a5-4b38-8101-e4e48a3abb57)" transform="matrix(5.489478346271195,0,0,5.489478346271195,-2.8545287161815693,-7.6852691962724435)"><path d="M5.99 6.15L5.99 6.15Q6.30 6.15 6.50 6.33L6.50 6.33L6.50 6.33Q6.71 6.52 6.71 6.82L6.71 6.82L6.71 6.82Q6.71 7.11 6.50 7.30L6.50 7.30L6.50 7.30Q6.30 7.49 5.99 7.49L5.99 7.49L1.97 7.49L1.97 11.61L1.97 11.61Q1.97 11.91 1.76 12.12L1.76 12.12L1.76 12.12Q1.55 12.33 1.25 12.33L1.25 12.33L1.25 12.33Q0.94 12.33 0.73 12.12L0.73 12.12L0.73 12.12Q0.52 11.91 0.52 11.61L0.52 11.61L0.52 2.13L0.52 2.13Q0.52 1.81 0.73 1.60L0.73 1.60L0.73 1.60Q0.94 1.40 1.25 1.40L1.25 1.40L7.57 1.40L7.57 1.40Q7.90 1.40 8.09 1.59L8.09 1.59L8.09 1.59Q8.29 1.78 8.29 2.09L8.29 2.09L8.29 2.09Q8.29 2.38 8.09 2.56L8.09 2.56L8.09 2.56Q7.90 2.74 7.57 2.74L7.57 2.74L1.97 2.74L1.97 6.15L5.99 6.15ZM11.61 11.61L11.61 11.61Q11.61 11.91 11.40 12.12L11.40 12.12L11.40 12.12Q11.19 12.33 10.88 12.33L10.88 12.33L10.88 12.33Q10.58 12.33 10.37 12.12L10.37 12.12L10.37 12.12Q10.15 11.91 10.15 11.61L10.15 11.61L10.15 2.13L10.15 2.13Q10.15 1.82 10.37 1.61L10.37 1.61L10.37 1.61Q10.58 1.40 10.88 1.40L10.88 1.40L10.88 1.40Q11.19 1.40 11.40 1.61L11.40 1.61L11.40 1.61Q11.61 1.82 11.61 2.13L11.61 2.13L11.61 6.33L16.24 1.69L16.24 1.69Q16.41 1.53 16.54 1.46L16.54 1.46L16.54 1.46Q16.67 1.40 16.84 1.40L16.84 1.40L16.84 1.40Q17.14 1.40 17.30 1.57L17.30 1.57L17.30 1.57Q17.46 1.75 17.46 2.00L17.46 2.00L17.46 2.00Q17.46 2.37 17.19 2.63L17.19 2.63L13.62 6.22L17.26 11.17L17.26 11.17Q17.40 11.37 17.40 11.62L17.40 11.62L17.40 11.62Q17.40 11.90 17.22 12.12L17.22 12.12L17.22 12.12Q17.04 12.33 16.76 12.33L16.76 12.33L16.76 12.33Q16.37 12.33 16.16 12.03L16.16 12.03L12.61 7.22L11.61 8.23L11.61 11.61Z"></path></g><!----><!----></svg>